<svg xmlns="http://www.w3.org/2000/svg" xmlns:xlink="http://www.w3.org/1999/xlink" width="500" zoomAndPan="magnify" viewBox="0 0 375 374.999991" height="500" preserveAspectRatio="xMidYMid meet" version="1.0"><path fill="#a6a6a6" d="M 228.347656 374.808594 L 146.554688 374.808594 C 130.773438 374.808594 117.855469 361.894531 117.855469 346.109375 L 117.855469 306.410156 L 136.988281 306.410156 L 136.988281 346.109375 C 136.988281 351.371094 141.292969 355.675781 146.554688 355.675781 L 228.347656 355.675781 C 233.609375 355.675781 237.914062 351.371094 237.914062 346.109375 L 237.914062 187.5 L 257.046875 187.5 L 257.046875 346.109375 C 257.046875 361.894531 244.226562 374.808594 228.347656 374.808594 Z M 228.347656 374.808594 " fill-opacity="1" fill-rule="nonzero"/><path fill="#03989e" d="M 136.988281 187.5 L 117.855469 187.5 L 117.855469 28.890625 C 117.855469 13.105469 130.773438 0.191406 146.554688 0.191406 L 228.347656 0.191406 C 244.132812 0.191406 257.046875 13.105469 257.046875 28.890625 L 257.046875 68.589844 L 237.914062 68.589844 L 237.914062 28.890625 C 237.914062 23.628906 233.609375 19.324219 228.347656 19.324219 L 146.554688 19.324219 C 141.292969 19.324219 136.988281 23.628906 136.988281 28.890625 Z M 136.988281 187.5 " fill-opacity="1" fill-rule="nonzero"/><path fill="#03989e" d="M 187.5 257.144531 L 28.890625 257.144531 C 13.105469 257.144531 0.191406 244.226562 0.191406 228.445312 L 0.191406 146.652344 C 0.191406 130.867188 13.105469 117.953125 28.890625 117.953125 L 68.589844 117.953125 L 68.589844 137.085938 L 28.890625 137.085938 C 23.628906 137.085938 19.324219 141.390625 19.324219 146.652344 L 19.324219 228.445312 C 19.324219 233.707031 23.628906 238.011719 28.890625 238.011719 L 187.5 238.011719 Z M 187.5 257.144531 " fill-opacity="1" fill-rule="nonzero"/><path fill="#a6a6a6" d="M 346.109375 257.144531 L 306.410156 257.144531 L 306.410156 238.011719 L 346.109375 238.011719 C 351.371094 238.011719 355.675781 233.707031 355.675781 228.445312 L 355.675781 146.652344 C 355.675781 141.390625 351.371094 137.085938 346.109375 137.085938 L 187.5 137.085938 L 187.5 117.953125 L 346.109375 117.953125 C 361.894531 117.953125 374.808594 130.867188 374.808594 146.652344 L 374.808594 228.445312 C 374.808594 244.226562 361.894531 257.144531 346.109375 257.144531 Z M 346.109375 257.144531 " fill-opacity="1" fill-rule="nonzero"/></svg>