<svg xmlns="http://www.w3.org/2000/svg" xmlns:xlink="http://www.w3.org/1999/xlink" width="500" zoomAndPan="magnify" viewBox="0 0 375 60" height="80" preserveAspectRatio="xMidYMid meet" version="1.0"><defs><g/></defs><path fill="#a6a6a6" d="M 36.535156 59.96875 L 23.449219 59.96875 C 20.921875 59.96875 18.855469 57.902344 18.855469 55.378906 L 18.855469 49.027344 L 21.917969 49.027344 L 21.917969 55.378906 C 21.917969 56.21875 22.605469 56.90625 23.449219 56.90625 L 36.535156 56.90625 C 37.378906 56.90625 38.066406 56.21875 38.066406 55.378906 L 38.066406 30 L 41.128906 30 L 41.128906 55.378906 C 41.128906 57.902344 39.078125 59.96875 36.535156 59.96875 Z M 36.535156 59.96875 " fill-opacity="1" fill-rule="nonzero"/><path fill="#03989e" d="M 21.917969 30 L 18.855469 30 L 18.855469 4.621094 C 18.855469 2.097656 20.921875 0.03125 23.449219 0.03125 L 36.535156 0.03125 C 39.0625 0.03125 41.128906 2.097656 41.128906 4.621094 L 41.128906 10.972656 L 38.066406 10.972656 L 38.066406 4.621094 C 38.066406 3.78125 37.378906 3.09375 36.535156 3.09375 L 23.449219 3.09375 C 22.605469 3.09375 21.917969 3.78125 21.917969 4.621094 Z M 21.917969 30 " fill-opacity="1" fill-rule="nonzero"/><path fill="#03989e" d="M 30 41.144531 L 4.621094 41.144531 C 2.097656 41.144531 0.03125 39.078125 0.03125 36.550781 L 0.03125 23.464844 C 0.03125 20.9375 2.097656 18.871094 4.621094 18.871094 L 10.972656 18.871094 L 10.972656 21.933594 L 4.621094 21.933594 C 3.78125 21.933594 3.09375 22.621094 3.09375 23.464844 L 3.09375 36.550781 C 3.09375 37.394531 3.78125 38.082031 4.621094 38.082031 L 30 38.082031 Z M 30 41.144531 " fill-opacity="1" fill-rule="nonzero"/><path fill="#a6a6a6" d="M 55.378906 41.144531 L 49.027344 41.144531 L 49.027344 38.082031 L 55.378906 38.082031 C 56.21875 38.082031 56.90625 37.394531 56.90625 36.550781 L 56.90625 23.464844 C 56.90625 22.621094 56.21875 21.933594 55.378906 21.933594 L 30 21.933594 L 30 18.871094 L 55.378906 18.871094 C 57.902344 18.871094 59.96875 20.9375 59.96875 23.464844 L 59.96875 36.550781 C 59.96875 39.078125 57.902344 41.144531 55.378906 41.144531 Z M 55.378906 41.144531 " fill-opacity="1" fill-rule="nonzero"/><g fill="#03989e" fill-opacity="1"><g transform="translate(67.09724, 49.380852)"><g><path d="M 47.03125 0 L 38.234375 0 L 38.171875 -25.515625 L 28.765625 -3.921875 L 22.25 -3.921875 L 12.84375 -25.515625 L 12.84375 0 L 3.921875 0 L 3.921875 -39.296875 L 14.859375 -39.296875 L 25.515625 -15.921875 L 36.15625 -39.296875 L 47.03125 -39.296875 Z M 47.03125 0 "/></g></g></g><g fill="#03989e" fill-opacity="1"><g transform="translate(118.117972, 49.380852)"><g><path d="M 34.640625 -31.390625 L 13.90625 -31.390625 L 13.90625 -23.609375 L 32.625 -23.609375 L 32.625 -15.75 L 13.90625 -15.75 L 13.90625 -7.84375 L 35.265625 -7.84375 L 35.265625 0 L 3.921875 0 L 3.921875 -39.25 L 34.640625 -39.25 Z M 34.640625 -31.390625 "/></g></g></g><g fill="#03989e" fill-opacity="1"><g transform="translate(155.906954, 49.380852)"><g><path d="M 3.921875 -39.25 L 20.796875 -39.25 C 26.960938 -39.25 31.976562 -37.4375 35.84375 -33.8125 C 39.71875 -30.1875 41.65625 -25.457031 41.65625 -19.625 C 41.65625 -13.832031 39.691406 -9.113281 35.765625 -5.46875 C 31.835938 -1.820312 26.71875 0 20.40625 0 L 3.921875 0 Z M 13.90625 -31.28125 L 13.90625 -7.953125 L 21.015625 -7.953125 C 24.085938 -7.953125 26.601562 -9.023438 28.5625 -11.171875 C 30.519531 -13.328125 31.5 -16.125 31.5 -19.5625 C 31.5 -23 30.472656 -25.8125 28.421875 -28 C 26.367188 -30.1875 23.753906 -31.28125 20.578125 -31.28125 Z M 13.90625 -31.28125 "/></g></g></g><g fill="#03989e" fill-opacity="1"><g transform="translate(198.910152, 49.380852)"><g><path d="M 13.90625 0 L 3.921875 0 L 3.921875 -39.25 L 13.90625 -39.25 Z M 13.90625 0 "/></g></g></g><g fill="#03989e" fill-opacity="1"><g transform="translate(216.739375, 49.380852)"><g><path d="M 19 -39.6875 C 24.875 -39.6875 30.035156 -38.226562 34.484375 -35.3125 L 30.71875 -27.53125 C 28.664062 -28.726562 26.460938 -29.707031 24.109375 -30.46875 C 21.753906 -31.238281 19.773438 -31.625 18.171875 -31.625 C 15.285156 -31.625 13.84375 -30.671875 13.84375 -28.765625 C 13.84375 -27.523438 14.550781 -26.53125 15.96875 -25.78125 C 17.394531 -25.039062 19.125 -24.398438 21.15625 -23.859375 C 23.195312 -23.316406 25.234375 -22.660156 27.265625 -21.890625 C 29.304688 -21.128906 31.035156 -19.882812 32.453125 -18.15625 C 33.878906 -16.4375 34.59375 -14.269531 34.59375 -11.65625 C 34.59375 -7.882812 33.113281 -4.941406 30.15625 -2.828125 C 27.207031 -0.710938 23.453125 0.34375 18.890625 0.34375 C 15.640625 0.34375 12.425781 -0.21875 9.25 -1.34375 C 6.070312 -2.46875 3.304688 -4 0.953125 -5.9375 L 4.828125 -13.625 C 6.804688 -11.90625 9.140625 -10.492188 11.828125 -9.390625 C 14.515625 -8.285156 16.90625 -7.734375 19 -7.734375 C 20.613281 -7.734375 21.867188 -8.019531 22.765625 -8.59375 C 23.660156 -9.175781 24.109375 -10.03125 24.109375 -11.15625 C 24.109375 -12.238281 23.59375 -13.144531 22.5625 -13.875 C 21.53125 -14.601562 20.25 -15.144531 18.71875 -15.5 C 17.1875 -15.851562 15.523438 -16.328125 13.734375 -16.921875 C 11.941406 -17.523438 10.28125 -18.179688 8.75 -18.890625 C 7.21875 -19.597656 5.9375 -20.726562 4.90625 -22.28125 C 3.875 -23.832031 3.359375 -25.691406 3.359375 -27.859375 C 3.359375 -31.453125 4.785156 -34.320312 7.640625 -36.46875 C 10.503906 -38.613281 14.289062 -39.6875 19 -39.6875 Z M 19 -39.6875 "/></g></g></g><g fill="#03989e" fill-opacity="1"><g transform="translate(252.846365, 49.380852)"><g><path d="M 22.3125 -39.578125 C 25.226562 -39.578125 28.097656 -38.976562 30.921875 -37.78125 C 33.742188 -36.582031 36.144531 -34.976562 38.125 -32.96875 L 32.34375 -26.125 C 31.070312 -27.695312 29.546875 -28.941406 27.765625 -29.859375 C 25.992188 -30.773438 24.234375 -31.234375 22.484375 -31.234375 C 19.378906 -31.234375 16.78125 -30.140625 14.6875 -27.953125 C 12.59375 -25.765625 11.546875 -23.0625 11.546875 -19.84375 C 11.546875 -16.550781 12.59375 -13.800781 14.6875 -11.59375 C 16.78125 -9.394531 19.378906 -8.296875 22.484375 -8.296875 C 24.128906 -8.296875 25.835938 -8.707031 27.609375 -9.53125 C 29.390625 -10.351562 30.96875 -11.472656 32.34375 -12.890625 L 38.171875 -6.734375 C 36.046875 -4.554688 33.535156 -2.8125 30.640625 -1.5 C 27.742188 -0.195312 24.851562 0.453125 21.96875 0.453125 C 16.070312 0.453125 11.160156 -1.46875 7.234375 -5.3125 C 3.304688 -9.164062 1.34375 -13.972656 1.34375 -19.734375 C 1.34375 -25.378906 3.34375 -30.097656 7.34375 -33.890625 C 11.34375 -37.679688 16.332031 -39.578125 22.3125 -39.578125 Z M 22.3125 -39.578125 "/></g></g></g><g fill="#03989e" fill-opacity="1"><g transform="translate(291.644548, 49.380852)"><g><path d="M 30 -7.234375 L 12.84375 -7.234375 L 9.984375 0 L -0.28125 0 L 16.65625 -39.25 L 26.90625 -39.25 L 43.453125 0 L 32.796875 0 Z M 27.078125 -14.796875 L 21.46875 -29.328125 L 15.75 -14.796875 Z M 27.078125 -14.796875 "/></g></g></g><g fill="#03989e" fill-opacity="1"><g transform="translate(334.815931, 49.380852)"><g><path d="M 40.140625 0 L 31.34375 0 L 13.28125 -24.15625 L 13.28125 0 L 3.921875 0 L 3.921875 -39.25 L 12.71875 -39.25 L 30.828125 -15.03125 L 30.828125 -39.25 L 40.140625 -39.25 Z M 40.140625 0 "/></g></g></g></svg>